# xmcd CD database file
#
# Track frame offsets:
#	150
#	17537
#	36821
#	64980
#	89791
#	117234
#	139119
#	155371
#	177250
#	198505
#	214096
#
# Disc length: 3117 seconds
#
# Revision: 2
# Processed by: cddbd v1.5.2PL0 Copyright (c) Steve Scherf et al.
# Submitted via: CDex 1.60beta1
#
DISCID=9b0c2b0b
DTITLE=Melody swingers - Moonglow
DYEAR=2007
DGENRE=Jazz
TTITLE0=moongloow
TTITLE1=i cried for you
TTITLE2=after you've gone
TTITLE3=honeysuckle rose
TTITLE4=the days of wine and roses
TTITLE5=i'll remember april
TTITLE6=just friends
TTITLE7=east of the sun
TTITLE8=but non for me
TTITLE9=i know that you know
TTITLE10=in a mellow tone
EXTD=YEAR: 2007
EXTT0=
EXTT1=
EXTT2=
EXTT3=
EXTT4=
EXTT5=
EXTT6=
EXTT7=
EXTT8=
EXTT9=
EXTT10=
PLAYORDER=
